<?xml version="1.0" encoding="UTF-8" standalone="no"?>
<!-- Created with Inkscape (http://www.inkscape.org/) -->

<svg
   xmlns:dc="http://purl.org/dc/elements/1.1/"
   xmlns:cc="http://creativecommons.org/ns#"
   xmlns:rdf="http://www.w3.org/1999/02/22-rdf-syntax-ns#"
   xmlns:svg="http://www.w3.org/2000/svg"
   xmlns="http://www.w3.org/2000/svg"
   xmlns:sodipodi="http://sodipodi.sourceforge.net/DTD/sodipodi-0.dtd"
   xmlns:inkscape="http://www.inkscape.org/namespaces/inkscape"
   width="630"
   height="930"
   viewBox="0 0 629.99999 929.99999"
   id="svg2"
   version="1.1"
   inkscape:version="0.91 r13725"
   sodipodi:docname="metro.svg"
   inkscape:export-filename="/Users/larsstegman/Developer/OVT/OvTijdCore/OvTijdCore/metro@1x.png"
   inkscape:export-xdpi="11"
   inkscape:export-ydpi="11">
  <defs
     id="defs4" />
  <sodipodi:namedview
     id="base"
     pagecolor="#ffffff"
     bordercolor="#666666"
     borderopacity="1.0"
     inkscape:pageopacity="0.0"
     inkscape:pageshadow="2"
     inkscape:zoom="0.5"
     inkscape:cx="206.91579"
     inkscape:cy="475.32699"
     inkscape:document-units="px"
     inkscape:current-layer="layer1"
     showgrid="false"
     units="px"
     inkscape:window-width="1405"
     inkscape:window-height="855"
     inkscape:window-x="35"
     inkscape:window-y="1"
     inkscape:window-maximized="1" />
  <metadata
     id="metadata7">
    <rdf:RDF>
      <cc:Work
         rdf:about="">
        <dc:format>image/svg+xml</dc:format>
        <dc:type
           rdf:resource="http://purl.org/dc/dcmitype/StillImage" />
        <dc:title></dc:title>
      </cc:Work>
    </rdf:RDF>
  </metadata>
  <g
     inkscape:label="Laag 1"
     inkscape:groupmode="layer"
     id="layer1"
     transform="translate(0,-122.36228)">
    <path
       style="opacity:1;fill:#000000;fill-rule:evenodd;stroke:#000000;stroke-width:1.03873587px;stroke-linecap:butt;stroke-linejoin:miter;stroke-opacity:1"
       d="M 291.32422 1.0527344 C 47.249098 0.14086437 36.083984 93.238281 36.083984 93.238281 C 36.083984 93.238281 -7.6524124 616.05339 1.8789062 839.46875 C 4.2660998 895.42469 65.828125 894.25195 65.828125 894.25195 L 96.701172 894.25195 L 96.701172 930.00781 L 143.8457 930.00781 L 143.8457 894.25195 L 314.32031 894.25195 L 315.67969 894.25195 L 492.10938 894.25195 L 492.10938 930.00781 L 539.25195 930.00781 L 539.25195 894.25195 L 564.17188 894.25195 C 564.17188 894.25195 625.73388 895.42469 628.12109 839.46875 C 637.6524 616.05339 593.91602 93.238281 593.91602 93.238281 C 593.91602 93.238281 582.0294 -5.7862456 315 1.4277344 C 306.87756 1.2083044 298.98136 1.0813344 291.32422 1.0527344 z M 144.96094 112.10156 L 471.78125 112.10156 C 481.97668 112.10156 490.18555 120.27166 490.18555 130.42188 L 490.18555 161.93555 C 490.18555 172.08575 481.97668 180.25586 471.78125 180.25586 L 144.96094 180.25586 C 134.76551 180.25586 126.55859 172.08575 126.55859 161.93555 L 126.55859 130.42188 C 126.55859 120.27167 134.76551 112.10156 144.96094 112.10156 z M 78.052734 209.02344 L 316.10352 209.02344 L 317.3125 209.02344 L 555.36523 209.02344 C 555.36523 209.02344 568.76932 266.34317 574.65625 332.62695 C 581.3776 408.30607 585.28906 530.02148 585.28906 530.02148 L 317.3125 530.02148 L 316.10352 530.02148 L 48.125 530.02148 C 48.125 530.02148 52.040366 408.30607 58.761719 332.62695 C 64.648644 266.34317 78.052734 209.02344 78.052734 209.02344 z M 85 667.67188 A 34.642078 34.642078 0 0 1 119.64258 702.31445 A 34.642078 34.642078 0 0 1 85 736.95703 A 34.642078 34.642078 0 0 1 50.357422 702.31445 A 34.642078 34.642078 0 0 1 85 667.67188 z M 545 667.67188 A 34.642078 34.642078 0 0 1 579.64258 702.31445 A 34.642078 34.642078 0 0 1 545 736.95703 A 34.642078 34.642078 0 0 1 510.35742 702.31445 A 34.642078 34.642078 0 0 1 545 667.67188 z "
       transform="translate(0,122.36228)"
       id="path3422"
       inkscape:export-xdpi="270"
       inkscape:export-ydpi="270" />
  </g>
</svg>
