<?xml version="1.0" encoding="UTF-8" standalone="no"?>
<!-- Created with Inkscape (http://www.inkscape.org/) -->

<svg
   xmlns:dc="http://purl.org/dc/elements/1.1/"
   xmlns:cc="http://creativecommons.org/ns#"
   xmlns:rdf="http://www.w3.org/1999/02/22-rdf-syntax-ns#"
   xmlns:svg="http://www.w3.org/2000/svg"
   xmlns="http://www.w3.org/2000/svg"
   xmlns:sodipodi="http://sodipodi.sourceforge.net/DTD/sodipodi-0.dtd"
   xmlns:inkscape="http://www.inkscape.org/namespaces/inkscape"
   width="640"
   height="930"
   viewBox="0 0 640 930"
   id="svg2"
   version="1.1"
   inkscape:version="0.91 r13725"
   sodipodi:docname="tram.svg"
   inkscape:export-filename="/Users/larsstegman/tram@2x"
   inkscape:export-xdpi="170.03226"
   inkscape:export-ydpi="170.03226">
  <defs
     id="defs4">
    <clipPath
       clipPathUnits="userSpaceOnUse"
       id="clipPath3358">
      <rect
         style="fill:none;stroke:#0000ff;stroke-width:0.70866144;stroke-miterlimit:3.42857146;stroke-dasharray:none;stroke-opacity:1"
         id="rect3360"
         width="780"
         height="1020"
         x="140"
         y="4"
         clip-path="none" />
    </clipPath>
    <clipPath
       clipPathUnits="userSpaceOnUse"
       id="clipPath3369">
      <rect
         style="fill:none;stroke:#0000ff;stroke-width:0.12463683;stroke-miterlimit:3.42857146;stroke-dasharray:none;stroke-opacity:1"
         id="rect3371"
         width="119.59595"
         height="165.32382"
         x="736.86682"
         y="371.81396" />
    </clipPath>
  </defs>
  <sodipodi:namedview
     id="base"
     pagecolor="#ffffff"
     bordercolor="#666666"
     borderopacity="1.0"
     inkscape:pageopacity="0.0"
     inkscape:pageshadow="2"
     inkscape:zoom="1.327406"
     inkscape:cx="261.26094"
     inkscape:cy="210.73925"
     inkscape:document-units="px"
     inkscape:current-layer="layer1"
     showgrid="true"
     units="px"
     inkscape:window-width="1405"
     inkscape:window-height="855"
     inkscape:window-x="35"
     inkscape:window-y="1"
     inkscape:window-maximized="1">
    <inkscape:grid
       type="xygrid"
       id="grid4653" />
  </sodipodi:namedview>
  <metadata
     id="metadata7">
    <rdf:RDF>
      <cc:Work
         rdf:about="">
        <dc:format>image/svg+xml</dc:format>
        <dc:type
           rdf:resource="http://purl.org/dc/dcmitype/StillImage" />
        <dc:title />
      </cc:Work>
    </rdf:RDF>
  </metadata>
  <g
     inkscape:label="Image"
     inkscape:groupmode="layer"
     id="layer1"
     transform="translate(0,-122.36216)">
    <rect
       style="opacity:0.02999998;fill:#e6e6e6;stroke:#0000ff;stroke-width:0.70866144;stroke-miterlimit:3.42857146;stroke-dasharray:none;stroke-opacity:1"
       id="rect3501"
       width="324.51752"
       height="79.096527"
       x="352.60788"
       y="214.82605" />
    <path
       style="opacity:1;fill:#000000;stroke:#0000ff;stroke-width:0.70958036;stroke-miterlimit:3.42857146;stroke-dasharray:none;stroke-opacity:1"
       d="M 274.66406 0.35546875 L 274.66406 0.36132812 L 160.85352 0.36132812 C 127.95004 9.7268181 100.93325 27.694522 84.8125 50.576172 L 72.189453 50.576172 C 39.045408 50.576172 12.363281 67.836514 12.363281 89.277344 L 12.363281 160.04688 C 12.363281 161.27891 12.46439 162.49532 12.636719 163.69727 L 0.36132812 834.74023 L 1.2226562 834.75195 C 1.3780926 856.10556 27.993885 873.26563 61.041016 873.26562 L 98.345703 873.26562 L 98.345703 929.64453 L 143.0332 929.64453 L 143.0332 878.44922 L 160.88086 890.57617 L 161.00195 890.39844 L 161.00195 891.0918 L 319.95508 891.0918 L 320.04492 891.0918 L 478.99805 891.0918 L 478.99805 890.39844 L 479.11914 890.57617 L 496.9668 878.44922 L 496.9668 929.64453 L 541.6543 929.64453 L 541.6543 873.26367 L 578.95898 873.26367 C 612.00611 873.26367 638.62191 856.10555 638.77734 834.75195 L 639.63867 834.74023 L 627.36328 163.69727 C 627.53564 162.49531 627.63672 161.27891 627.63672 160.04688 L 627.63672 89.277344 C 627.63672 67.836514 600.95459 50.576172 567.81055 50.576172 L 555.1875 50.576172 C 539.06674 27.694542 512.04997 9.7268181 479.14648 0.36132812 L 365.33594 0.36132812 L 365.33594 0.35546875 L 320.64844 0.35546875 L 319.35156 0.35546875 L 274.66406 0.35546875 z M 146.46094 149.04297 L 319.36523 149.04297 L 320.63477 149.04297 L 493.53906 149.04297 L 493.53906 210.93164 L 320.04492 210.93164 L 319.95508 210.93164 L 146.46094 210.93164 L 146.46094 149.04297 z M 146.44727 237.48828 L 319.95508 237.48828 L 320.04492 237.48828 L 493.55273 237.48828 L 493.55273 589.76758 C 493.56273 590.09143 493.57813 590.41524 493.57812 590.74023 L 493.57812 610.46484 C 493.57812 645.16438 438.94263 673.47356 368.7207 676.59961 C 359.82803 677.29899 350.67016 677.68359 341.28906 677.68359 C 334.07029 677.68359 326.9843 677.45193 320.04492 677.0332 L 320.04492 677.0293 C 320.03002 677.0302 320.0149 677.03025 320 677.03125 C 319.9851 677.03035 319.96998 677.0303 319.95508 677.0293 L 319.95508 677.0332 C 313.01569 677.45193 305.9297 677.68359 298.71094 677.68359 C 289.32983 677.68359 280.17197 677.299 271.2793 676.59961 C 201.05737 673.47357 146.42187 645.16437 146.42188 610.46484 L 146.42188 590.74023 C 146.42188 590.41524 146.43817 590.09142 146.44727 589.76758 L 146.44727 237.48828 z M 46.550781 252.12695 L 101.54492 260.36914 L 101.54492 586.20312 L 46.550781 577.95898 L 46.550781 252.12695 z M 593.44922 252.12695 L 593.44922 577.95898 L 538.45508 586.20312 L 538.45508 260.36914 L 593.44922 252.12695 z M 80 700 A 20 20 0 0 1 100 720 A 20 20 0 0 1 80 740 A 20 20 0 0 1 60 720 A 20 20 0 0 1 80 700 z M 560 700.34766 A 19.651838 19.651838 0 0 1 579.65234 720 A 19.651838 19.651838 0 0 1 560 739.65234 A 19.651838 19.651838 0 0 1 540.34766 720 A 19.651838 19.651838 0 0 1 560 700.34766 z "
       transform="translate(0,122.36216)"
       id="rect3657" />
  </g>
  <g
     inkscape:groupmode="layer"
     id="layer3"
     inkscape:label="bg"
     transform="translate(0,-94)" />
  <g
     inkscape:groupmode="layer"
     id="layer2"
     inkscape:label="Trace"
     transform="translate(0,-94)" />
</svg>
