<?xml version="1.0" encoding="UTF-8" standalone="no"?>
<!-- Created with Inkscape (http://www.inkscape.org/) -->

<svg
   xmlns:dc="http://purl.org/dc/elements/1.1/"
   xmlns:cc="http://creativecommons.org/ns#"
   xmlns:rdf="http://www.w3.org/1999/02/22-rdf-syntax-ns#"
   xmlns:svg="http://www.w3.org/2000/svg"
   xmlns="http://www.w3.org/2000/svg"
   xmlns:sodipodi="http://sodipodi.sourceforge.net/DTD/sodipodi-0.dtd"
   xmlns:inkscape="http://www.inkscape.org/namespaces/inkscape"
   width="640"
   height="930"
   viewBox="0 0 640 930"
   id="svg2"
   version="1.1"
   inkscape:version="0.91 r13725"
   sodipodi:docname="tram.svg">
  <defs
     id="defs4">
    <clipPath
       clipPathUnits="userSpaceOnUse"
       id="clipPath3358">
      <rect
         style="fill:none;stroke:#0000ff;stroke-width:0.70866144;stroke-miterlimit:3.42857146;stroke-dasharray:none;stroke-opacity:1"
         id="rect3360"
         width="780"
         height="1020"
         x="140"
         y="4"
         clip-path="none" />
    </clipPath>
    <clipPath
       clipPathUnits="userSpaceOnUse"
       id="clipPath3369">
      <rect
         style="fill:none;stroke:#0000ff;stroke-width:0.12463683;stroke-miterlimit:3.42857146;stroke-dasharray:none;stroke-opacity:1"
         id="rect3371"
         width="119.59595"
         height="165.32382"
         x="736.86682"
         y="371.81396" />
    </clipPath>
  </defs>
  <sodipodi:namedview
     id="base"
     pagecolor="#ffffff"
     bordercolor="#666666"
     borderopacity="1.0"
     inkscape:pageopacity="0.0"
     inkscape:pageshadow="2"
     inkscape:zoom="0.47827906"
     inkscape:cx="461.29379"
     inkscape:cy="335.48707"
     inkscape:document-units="px"
     inkscape:current-layer="layer1"
     showgrid="true"
     units="px"
     inkscape:window-width="1405"
     inkscape:window-height="855"
     inkscape:window-x="35"
     inkscape:window-y="1"
     inkscape:window-maximized="1">
    <inkscape:grid
       type="xygrid"
       id="grid4653" />
  </sodipodi:namedview>
  <metadata
     id="metadata7">
    <rdf:RDF>
      <cc:Work
         rdf:about="">
        <dc:format>image/svg+xml</dc:format>
        <dc:type
           rdf:resource="http://purl.org/dc/dcmitype/StillImage" />
        <dc:title />
      </cc:Work>
    </rdf:RDF>
  </metadata>
  <g
     inkscape:label="Image"
     inkscape:groupmode="layer"
     id="layer1"
     transform="translate(0,-122.36216)">
    <rect
       style="opacity:0.02999998;fill:#e6e6e6;stroke:#0000ff;stroke-width:0.70866144;stroke-miterlimit:3.42857146;stroke-dasharray:none;stroke-opacity:1"
       id="rect3501"
       width="324.51752"
       height="79.096527"
       x="352.60788"
       y="214.82605" />
    <path
       style="opacity:1;fill:#000000;stroke:#0000ff;stroke-width:0.70958036;stroke-miterlimit:3.42857146;stroke-dasharray:none;stroke-opacity:1"
       d="m 274.66481,122.71698 0,0.006 -113.81119,0 c -32.90348,9.36549 -59.9199,27.33306 -76.040648,50.21471 l -12.623488,0 c -33.144045,0 -59.82586,17.26023 -59.82586,38.70106 l 0,70.76933 c 0,1.23203 0.100013,2.44843 0.272342,3.65038 l -12.27473669,671.04307 0.86206729,0.0117 c 0.1554363,21.35361 26.7708944,38.51552 59.8180254,38.51552 l 37.304222,0 0,56.37865 44.686696,0 0,-51.1951 17.84882,12.127 0.12147,-0.1778 0,0.6934 158.95243,0 0.0901,0 158.95243,0 0,-0.6934 0.12147,0.1778 17.84881,-12.127 0,51.1951 44.68671,0 0,-56.38061 37.30422,0 c 33.04713,0 59.66259,-17.15996 59.81802,-38.51356 l 0.86207,-0.0117 -12.27474,-671.04307 c 0.17236,-1.20196 0.27235,-2.41835 0.27235,-3.65038 l 0,-70.76933 c 0,-21.44083 -26.68182,-38.70106 -59.82586,-38.70106 l -12.62349,0 c -16.12076,-22.88163 -43.13717,-40.84922 -76.04066,-50.21471 l -113.81118,0 0,-0.006 -44.6867,0 -1.29702,0 -44.6867,0 z m -128.20387,148.68905 172.90428,0 1.26959,0 172.90429,0 0,61.88849 -173.49402,0 -0.0901,0 -173.49402,0 0,-61.88849 z m -0.0137,88.44506 173.50774,0 0.0901,0 173.50774,0 0,352.27832 c 0.01,0.32385 0.0255,0.64766 0.0255,0.97265 l 0,19.72456 c 0,34.69954 -54.63554,63.00854 -124.85747,66.13459 -8.89267,0.69938 -18.05043,1.08398 -27.43153,1.08398 -7.21877,0 -14.30483,-0.23166 -21.24421,-0.65039 l 0,-0.004 c -0.0149,9e-4 -0.0301,10e-4 -0.045,0.002 -0.0149,-9e-4 -0.0301,-10e-4 -0.045,-0.002 l 0,0.004 c -6.93939,0.41873 -14.02545,0.65039 -21.24421,0.65039 -9.38111,0 -18.53887,-0.38459 -27.43154,-1.08398 C 201.05743,795.83517 146.4219,767.52615 146.4219,732.82662 l 0,-19.72456 c 0,-0.32499 0.0164,-0.64881 0.0255,-0.97265 l 0,-352.27832 z m -99.896548,14.63862 54.994338,8.24217 0,325.83309 -54.994338,-8.24412 0,-325.83114 z m 546.898698,0 0,325.83114 -54.99434,8.24412 0,-325.83309 54.99434,-8.24217 z"
       id="rect3657"
       inkscape:connector-curvature="0"
       inkscape:export-xdpi="270"
       inkscape:export-ydpi="270" />
  </g>
  <g
     inkscape:groupmode="layer"
     id="layer3"
     inkscape:label="bg"
     transform="translate(0,-94)" />
  <g
     inkscape:groupmode="layer"
     id="layer2"
     inkscape:label="Trace"
     transform="translate(0,-94)" />
</svg>
