<?xml version="1.0" encoding="UTF-8" standalone="no"?>
<!-- Created with Inkscape (http://www.inkscape.org/) -->

<svg
   xmlns:dc="http://purl.org/dc/elements/1.1/"
   xmlns:cc="http://creativecommons.org/ns#"
   xmlns:rdf="http://www.w3.org/1999/02/22-rdf-syntax-ns#"
   xmlns:svg="http://www.w3.org/2000/svg"
   xmlns="http://www.w3.org/2000/svg"
   xmlns:sodipodi="http://sodipodi.sourceforge.net/DTD/sodipodi-0.dtd"
   xmlns:inkscape="http://www.inkscape.org/namespaces/inkscape"
   width="880"
   height="930"
   viewBox="0 0 880.00003 929.99996"
   id="svg2"
   version="1.1"
   inkscape:version="0.91 r13725"
   sodipodi:docname="bus.svg">
  <defs
     id="defs4" />
  <sodipodi:namedview
     id="base"
     pagecolor="#ffffff"
     bordercolor="#666666"
     borderopacity="1.0"
     inkscape:pageopacity="0.0"
     inkscape:pageshadow="2"
     inkscape:zoom="0.7"
     inkscape:cx="415.79474"
     inkscape:cy="538.03352"
     inkscape:document-units="px"
     inkscape:current-layer="layer1"
     showgrid="false"
     units="px"
     inkscape:window-width="1405"
     inkscape:window-height="855"
     inkscape:window-x="35"
     inkscape:window-y="1"
     inkscape:window-maximized="1" />
  <metadata
     id="metadata7">
    <rdf:RDF>
      <cc:Work
         rdf:about="">
        <dc:format>image/svg+xml</dc:format>
        <dc:type
           rdf:resource="http://purl.org/dc/dcmitype/StillImage" />
        <dc:title />
      </cc:Work>
    </rdf:RDF>
  </metadata>
  <g
     inkscape:label="Laag 1"
     inkscape:groupmode="layer"
     id="layer1"
     transform="translate(0,-122.36228)">
    <path
       style="opacity:1;fill:#000000;fill-rule:evenodd;stroke:none;stroke-width:1.00748205px;stroke-linecap:butt;stroke-linejoin:miter;stroke-opacity:1"
       d="M 204.56641 0 C 156.603 0.0826 92.313745 12.994286 88.316406 174.88867 C 88.316406 174.88867 87.770035 193.10274 87.009766 220.68945 L 36.439453 220.68945 C 34.550484 220.68945 33.029297 222.22997 33.029297 224.14258 L 33.029297 231.5957 L 12.027344 231.5957 C 5.3650048 231.5957 -2.3684758e-15 237.02577 0 243.77148 L 0 340.82812 C 0 347.57385 5.3650048 353.00391 12.027344 353.00391 L 54.033203 353.00391 C 60.695541 353.00391 66.058594 347.57387 66.058594 340.82812 L 66.058594 243.77148 C 66.058594 243.08888 65.988484 242.42485 65.882812 241.77344 L 86.439453 241.77344 C 84.490189 314.90772 81.656288 433.56027 81.136719 523.84961 C 80.558367 624.35366 86.807269 729.70777 91.597656 824.87891 L 91.597656 917.82422 C 91.597656 924.56982 96.960732 930 103.62305 930 L 172.48438 930 C 179.14669 930 184.50977 924.56982 184.50977 917.82422 L 184.50977 846.09961 L 440 848.23828 L 695.49023 846.09961 L 695.49023 917.82422 C 695.49023 924.56982 700.85331 930 707.51562 930 L 776.37695 930 C 783.03926 930 788.40039 924.56982 788.40039 917.82422 L 788.40039 824.87891 C 793.19079 729.70777 799.44164 624.35365 798.86328 523.84961 C 798.34372 433.56027 795.50981 314.90772 793.56055 241.77344 L 814.11719 241.77344 C 814.01157 242.42485 813.94141 243.08889 813.94141 243.77148 L 813.94141 340.82812 C 813.94141 347.57387 819.30447 353.00391 825.9668 353.00391 L 867.97266 353.00391 C 874.63499 353.00391 880 347.57387 880 340.82812 L 880 243.77148 C 880 237.02578 874.63499 231.5957 867.97266 231.5957 L 846.9707 231.5957 L 846.9707 224.14258 C 846.9707 222.22997 845.44953 220.69141 843.56055 220.69141 L 792.98828 220.69141 C 792.22801 193.1047 791.68359 174.88867 791.68359 174.88867 C 787.68626 12.994296 723.397 0.0826 675.43359 0 C 666.55148 -0.0153 658.22889 0.41015625 650.95312 0.41015625 L 440 0.41015625 L 229.04688 0.41015625 C 221.77113 0.41015625 213.44852 -0.01531 204.56641 0 z M 170.22461 120.66992 L 709.77539 120.66992 C 718.20936 120.66992 725 127.46057 725 135.89453 L 725 185.44531 C 725 193.87928 718.20936 200.66992 709.77539 200.66992 L 170.22461 200.66992 C 161.79064 200.66992 155 193.87928 155 185.44531 L 155 135.89453 C 155 127.46057 161.79064 120.66992 170.22461 120.66992 z M 97.429688 245.71484 L 782.57031 245.71484 C 784.4131 313.16229 786.74851 409.94244 787.21094 486.11133 C 787.34477 508.15402 787.09239 530.4535 786.58008 552.81641 C 786.57009 552.82412 786.56081 552.85742 786.55078 552.85742 L 93.449219 552.85742 C 93.439192 552.85742 93.429913 552.82412 93.419922 552.81641 C 92.907769 530.4535 92.655236 508.15402 92.789062 486.11133 C 93.251504 409.94244 95.586895 313.16229 97.429688 245.71484 z M 122.16992 680 L 167.83008 680 C 174.57234 680 180 686.23668 180 693.98242 L 180 696.01953 C 180 703.76527 174.57234 710 167.83008 710 L 122.16992 710 C 115.42766 710 110 703.76527 110 696.01953 L 110 693.98242 C 110 686.23668 115.42766 680 122.16992 680 z M 712.16992 680 L 757.83008 680 C 764.57234 680 770 686.23668 770 693.98242 L 770 696.01953 C 770 703.76527 764.57234 710 757.83008 710 L 712.16992 710 C 705.42766 710 700 703.76527 700 696.01953 L 700 693.98242 C 700 686.23668 705.42766 680 712.16992 680 z "
       transform="translate(0,122.36225)"
       id="path3403"
       inkscape:export-filename="/Users/larsstegman/bus@3x"
       inkscape:export-xdpi="269.99988"
       inkscape:export-ydpi="269.99988" />
  </g>
</svg>
